<?xml version="1.0" encoding="utf-8"?>
<!-- Generator: Adobe Illustrator 23.0.1, SVG Export Plug-In . SVG Version: 6.00 Build 0)  -->
<svg version="1.1" id="Capa_1" xmlns="http://www.w3.org/2000/svg" xmlns:xlink="http://www.w3.org/1999/xlink" x="0px" y="0px"
	 viewBox="0 0 384 384" style="enable-background:new 0 0 384 384;" xml:space="preserve">
<style type="text/css">
	.st0{fill:#EFEEEE;}
	.st1{fill:#ABABAB;}
	.st2{fill:#DEDEDD;}
	.st3{fill:#FF5C70;}
	.st4{fill:#FFFFFF;}
</style>
<polygon class="st0" points="64,0 64,384 288,384 384,288 384,0 "/>
<polygon class="st1" points="288,288 288,384 384,288 "/>
<polygon class="st2" points="192,384 288,384 288,288 "/>
<path class="st3" d="M0,96v112h272V96H0z"/>
<g>
	<path class="st4" d="M49.2,117.9L58,140l8.7-22.2h15.1l-15.9,33.9L83,186.4H67.4l-9.9-23.2l-9.8,23.2H32.6l17.1-34.7l-15.7-33.9
		H49.2L49.2,117.9z"/>
	<path class="st4" d="M222.2,117.9L231,140l8.7-22.2h15.1l-15.9,33.9l17.1,34.7h-15.6l-9.9-23.2l-9.8,23.2h-15.2l17.1-34.7
		l-15.7-33.9H222.2L222.2,117.9z"/>
	<path class="st4" d="M98,117.9h13.8v57.2h24.5v11.3H98V117.9L98,117.9z"/>
	<path class="st4" d="M163.1,167c0,1.6,0.1,3.1,0.4,4.4c0.3,1.3,0.7,2.4,1.4,3.3c0.7,0.9,1.7,1.6,2.8,2.1c1.2,0.5,2.7,0.8,4.4,0.8
		c2.1,0,4-0.7,5.7-2.1c1.7-1.4,2.5-3.5,2.5-6.4c0-1.5-0.2-2.9-0.6-4c-0.4-1.1-1.1-2.1-2.1-3c-1-0.9-2.2-1.7-3.8-2.4
		s-3.5-1.5-5.8-2.3c-3.1-1-5.7-2.2-8-3.4c-2.2-1.2-4.1-2.6-5.6-4.3c-1.5-1.6-2.6-3.5-3.3-5.7c-0.7-2.2-1.1-4.6-1.1-7.5
		c0-6.8,1.9-11.8,5.7-15.2c3.8-3.3,9-5,15.6-5c3.1,0,5.9,0.3,8.5,1s4.8,1.7,6.7,3.3c1.9,1.5,3.4,3.4,4.4,5.7c1,2.3,1.6,5.1,1.6,8.4
		v1.9h-13.2c0-3.3-0.6-5.8-1.7-7.6c-1.2-1.7-3.1-2.6-5.8-2.6c-1.5,0-2.8,0.2-3.8,0.7c-1,0.4-1.8,1-2.4,1.8c-0.6,0.7-1,1.6-1.2,2.5
		c-0.2,1-0.3,2-0.3,3c0,2.1,0.4,3.9,1.3,5.3c0.9,1.5,2.8,2.8,5.8,4l10.7,4.6c2.6,1.2,4.8,2.4,6.4,3.6c1.7,1.2,3,2.6,4,4
		c1,1.4,1.7,3,2.1,4.8c0.4,1.7,0.6,3.6,0.6,5.7c0,7.2-2.1,12.5-6.3,15.8c-4.2,3.3-10,5-17.5,5c-7.8,0-13.4-1.7-16.8-5.1
		c-3.4-3.4-5-8.3-5-14.6V165h13.8V167z"/>
</g>
</svg>
